<svg width="24" height="24" viewBox="0 0 24 24" fill="none" xmlns="http://www.w3.org/2000/svg">
<path d="M12 22C10.0222 22 8.08879 21.4135 6.4443 20.3147C4.79981 19.2159 3.51809 17.6541 2.76121 15.8268C2.00433 13.9996 1.8063 11.9889 2.19215 10.0491C2.578 8.10929 3.53041 6.32746 4.92894 4.92894C6.32746 3.53041 8.10929 2.578 10.0491 2.19215C11.9889 1.8063 13.9996 2.00433 15.8268 2.76121C17.6541 3.51809 19.2159 4.79981 20.3147 6.4443C21.4135 8.08879 22 10.0222 22 12C21.9971 14.6513 20.9426 17.1931 19.0679 19.0679C17.1931 20.9426 14.6513 21.9971 12 22ZM12 4C10.4178 4 8.87104 4.4692 7.55544 5.34825C6.23985 6.2273 5.21447 7.47673 4.60897 8.93854C4.00347 10.4003 3.84504 12.0089 4.15372 13.5607C4.4624 15.1126 5.22433 16.538 6.34315 17.6569C7.46197 18.7757 8.88743 19.5376 10.4393 19.8463C11.9911 20.155 13.5997 19.9965 15.0615 19.391C16.5233 18.7855 17.7727 17.7602 18.6518 16.4446C19.5308 15.129 20 13.5823 20 12C19.9976 9.879 19.154 7.84556 17.6542 6.34578C16.1545 4.84601 14.121 4.00239 12 4Z" fill="#111928"/>
<path d="M12 13C11.7348 13 11.4804 12.8946 11.2929 12.7071C11.1054 12.5196 11 12.2652 11 12V8C11 7.73479 11.1054 7.48043 11.2929 7.2929C11.4804 7.10536 11.7348 7 12 7C12.2652 7 12.5196 7.10536 12.7071 7.2929C12.8946 7.48043 13 7.73479 13 8V12C13 12.2652 12.8946 12.5196 12.7071 12.7071C12.5196 12.8946 12.2652 13 12 13Z" fill="#111928"/>
<path d="M15.275 16.275C15.0098 16.2749 14.7555 16.1696 14.568 15.982L11.2929 12.7071C11.1107 12.5185 11.0101 12.2658 11.0123 12.0036C11.0146 11.7414 11.1198 11.4906 11.3052 11.3052C11.4906 11.1198 11.7414 11.0146 12.0036 11.0123C12.2658 11.0101 12.5184 11.1108 12.707 11.293L15.982 14.568C16.1218 14.7079 16.217 14.886 16.2556 15.08C16.2942 15.2739 16.2744 15.475 16.1987 15.6577C16.123 15.8404 15.9949 15.9965 15.8305 16.1064C15.6661 16.2163 15.4728 16.275 15.275 16.275Z" fill="#111928"/>
</svg>
