<svg width="25" height="24" viewBox="0 0 25 24" fill="none" xmlns="http://www.w3.org/2000/svg">
<path fill-rule="evenodd" clip-rule="evenodd" d="M16.2984 9.02127C15.6519 8.99403 15.009 9.12466 14.4326 9.40035C13.8563 9.67603 13.3664 10.0873 13.0109 10.5938V9.00928H9.84293V19H13.0333V14.1845C13.0333 12.9137 13.3448 11.6868 15.172 11.6868C17.0557 11.6868 17.3 13.1394 17.3 14.2684V19H20.5V13.66C20.5 11.0374 19.7533 9.02127 16.2984 9.02127Z" fill="#F9FAFB"/>
<path fill-rule="evenodd" clip-rule="evenodd" d="M6.1 5C5.78355 5 5.47421 5.08789 5.21109 5.25256C4.94797 5.41723 4.74289 5.65128 4.62179 5.92512C4.50069 6.19895 4.46901 6.50027 4.53074 6.79097C4.59248 7.08167 4.74487 7.3487 4.96863 7.55828C5.19239 7.76787 5.47749 7.9106 5.78786 7.96842C6.09823 8.02625 6.41993 7.99657 6.71229 7.88314C7.00466 7.76972 7.25454 7.57764 7.43035 7.33119C7.60616 7.08475 7.7 6.79501 7.7 6.49861C7.7 6.10115 7.53143 5.71998 7.23137 5.43893C6.93131 5.15789 6.52435 5 6.1 5Z" fill="#F9FAFB"/>
<path d="M7.7 9.02127H4.5V19H7.7V9.02127Z" fill="#F9FAFB"/>
</svg>
