<svg width="31" height="30" viewBox="0 0 31 30" fill="none" xmlns="http://www.w3.org/2000/svg">
<path fill-rule="evenodd" clip-rule="evenodd" d="M27.745 10.021C27.6268 9.12864 27.2842 8.28036 26.7489 7.55471C26.0854 6.88998 25.1857 6.51154 24.2441 6.50115C20.7507 6.25 15.5 6.25 15.5 6.25C15.5 6.25 10.2518 6.25 6.75341 6.50115C5.8121 6.51133 4.91269 6.88983 4.24987 7.55471C3.71219 8.27966 3.36895 9.12885 3.2525 10.0222C3.09646 11.3588 3.01218 12.7027 3 14.0482V15.9318C3.0121 17.2772 3.09639 18.6211 3.2525 19.9577C3.37118 20.8519 3.71129 21.7028 4.2423 22.434C5.00446 23.1068 5.9844 23.4848 7.00338 23.4989C9.00192 23.6885 15.5013 23.75 15.5013 23.75C15.5013 23.75 20.7545 23.75 24.2479 23.4989C25.19 23.4879 26.0901 23.1091 26.7539 22.444C27.288 21.7175 27.6297 20.8689 27.7475 19.9765C27.9035 18.6399 27.9878 17.2961 28 15.9506V14.0469C27.9858 12.7014 27.9007 11.3576 27.745 10.021ZM12.9838 18.2511V11.1939L19.8013 14.7338L12.9838 18.2511Z" fill="#F9FAFB"/>
</svg>
